<svg width="152" height="152" viewBox="0 0 152 152" fill="none" xmlns="http://www.w3.org/2000/svg">
<path d="M110.425 60.5822L109.196 63.1433C108.562 64.1715 107.892 65.1801 107.402 66.2873C106.577 65.7273 105.711 65.2082 104.848 64.682L101.173 62.1097C100.847 61.8219 100.535 61.5185 100.24 61.195C100.361 60.9604 100.658 60.5784 100.785 60.3764C101.194 59.7278 101.602 59.079 102.004 58.4269C102.495 57.6327 103.044 56.7452 103.408 55.9171C103.667 56.0506 103.966 56.2618 104.136 56.3565C104.826 56.7421 105.503 57.1527 106.176 57.5681C107.636 58.47 109.164 59.4051 110.425 60.5822ZM102.845 55.5206C102.855 55.4955 102.869 55.4738 102.886 55.4539L102.698 55.3385L101.071 58.7399C101.105 58.6853 101.14 58.6311 101.173 58.5765C101.784 57.5878 102.433 56.6004 102.845 55.5206ZM14.1814 99.4744C14.3954 97.9913 15.3578 96.888 16.4844 95.9726C16.4512 95.9729 16.4177 95.9721 16.3845 95.9726C16.1348 95.9754 15.8054 95.9519 15.4456 95.9287L13.2387 96.0193C13.0865 96.0663 12.9504 96.1266 12.8417 96.2078C12.7528 96.2739 12.5455 96.3053 12.382 96.2951C12.3685 96.3306 12.3483 96.3972 12.3297 96.5172C12.3037 96.687 12.2835 96.8571 12.2722 97.0284C12.2352 97.5899 12.2301 98.1532 12.2352 98.7155C12.2493 100.193 12.3103 101.669 12.378 103.145C12.5176 106.194 12.7278 109.247 12.7395 112.301C12.763 112.327 12.7735 112.361 12.7622 112.406C12.7298 112.534 13.1562 112.596 13.2214 112.587C13.7724 112.507 14.1199 111.782 14.2683 111.316C14.8451 109.507 14.545 107.574 15.1106 105.755C15.4364 104.708 15.9282 103.708 16.587 102.905C16.5753 102.902 16.5638 102.898 16.5538 102.893C15.3034 102.222 13.9506 101.072 14.1814 99.4744ZM15.0003 98.7316C15.032 98.6501 15.0688 98.5694 15.1155 98.4913C15.5118 97.831 15.8493 97.2904 16.1154 96.8745C15.6131 97.4191 15.1837 98.0455 15.0003 98.7316ZM15.846 101.634C15.4426 101.088 15.0419 100.406 14.923 99.7335C15.0006 100.51 15.3458 101.128 15.846 101.634ZM12.2523 96.2744C12.2061 96.2915 12.1599 96.3053 12.1167 96.3145V96.3423C12.2457 96.3482 12.3205 96.3191 12.3593 96.2936C12.3195 96.2902 12.2832 96.2836 12.2523 96.2744ZM61.4904 73.9522C61.0229 71.5931 60.5482 69.3557 59.7107 67.0934C59.0647 65.3482 57.7798 63.8641 57.4977 61.9866C57.4915 61.9457 57.4984 61.9074 57.5153 61.8717C54.933 60.7349 52.4475 59.3471 50.1086 57.858C46.8323 55.7723 42.8824 53.1888 41.1555 49.5596C41.1318 49.5095 41.1448 49.4605 41.18 49.4158C41.1696 49.4087 41.1614 49.3997 41.1555 49.3893C40.9775 49.0721 40.795 48.7542 40.6538 48.4185C40.3068 47.5942 40.0731 46.6211 40.2685 45.8119C40.3175 45.6092 40.3956 45.4177 40.5036 45.2405C40.713 44.8983 41.0381 44.6113 41.5245 44.4196C43.1773 43.7679 45.0556 44.2893 46.532 45.1549C49.4557 46.8688 51.2653 49.8443 53.7617 52.0678C54.5135 52.7373 55.3007 53.3394 56.117 53.8897C55.9786 51.1963 55.0528 49.2573 52.771 47.5661C51.5186 46.6377 50.0989 45.539 48.5826 44.6379C48.3475 44.6731 48.2231 44.5659 48.2561 44.4479C46.14 43.2432 43.8481 42.4693 41.5633 43.1051C41.5094 43.1252 41.4558 43.1451 41.4037 43.1679C41.3863 43.1801 41.369 43.1924 41.348 43.2041C40.747 43.5386 40.3014 43.9255 39.9802 44.3496C39.7501 44.6535 39.5831 44.9765 39.4731 45.3145C38.9649 46.8742 39.6311 48.7445 40.5092 50.4375C42.1478 53.5968 44.2043 56.533 45.5939 59.822C46.3402 61.5893 46.952 63.452 47.1272 65.3727C47.2087 66.2681 47.2406 67.1731 47.143 68.0693C47.0731 68.7113 47.0723 69.6453 46.6967 70.2022C46.0665 71.1362 44.9553 71.7304 44.0925 72.4229C41.9775 74.1199 40.2498 76.1387 38.8153 78.4388C38.7816 78.4929 38.7231 78.5355 38.6542 78.567C38.6575 78.5698 38.6601 78.5721 38.6636 78.5749C38.8156 78.5087 39.003 78.4855 39.0957 78.5539C41.2817 80.1667 43.0154 82.5973 45.5423 83.7121C47.319 84.496 48.9807 83.8952 50.7914 83.6919C51.6656 83.5936 52.7148 83.505 53.5187 83.9542C53.9732 84.2082 54.2931 84.5432 54.5418 84.9211C55.1957 82.4954 55.7473 80.0492 56.1344 77.5857C56.1798 77.2966 56.9308 77.1782 56.8787 77.5098C56.4405 80.2972 55.7603 83.0518 54.9772 85.7735C55.1868 86.2946 55.3459 86.8462 55.553 87.3694C56.0486 88.07 56.6724 88.8613 57.2832 89.3906C57.9202 89.7045 58.6125 89.7484 59.2784 89.266C59.6857 88.9711 60.0541 88.6325 60.4492 88.3228C60.9854 87.9025 61.528 87.5678 62.1508 87.3247C62.3709 86.2229 62.4952 85.1096 62.5419 83.9912C62.5062 82.681 62.4538 81.1099 62.378 79.5334C62.1811 77.6528 61.853 75.7817 61.4904 73.9522ZM51.194 57.7941C50.6711 57.464 50.1438 57.1292 49.6237 56.7968C49.8913 56.9701 50.1566 57.1407 50.4163 57.3062C50.6739 57.4701 50.9336 57.6327 51.194 57.7941ZM47.404 46.5054C46.6586 45.8635 45.8528 45.3059 44.9581 44.9272C45.7463 45.3585 46.6086 45.9337 47.404 46.5054ZM59.8859 129.814C59.8859 129.814 59.8856 129.814 59.8856 129.814C59.651 129.227 58.8489 128.883 57.4811 128.726C56.7681 128.681 56.0672 128.708 55.6329 128.666C55.5009 128.653 55.3656 128.637 55.2289 128.62C54.7755 128.612 54.3179 128.521 53.8703 128.375C52.3385 128.015 50.7737 127.352 49.7881 126.281C48.9636 127.357 47.9537 128.19 46.5379 128.379C45.252 128.55 44.0593 127.856 43.0877 127.062C42.6087 128.192 42.0896 129.295 41.5332 130.339C41.5099 130.383 41.4663 130.42 41.4119 130.45C41.4379 130.462 41.4571 130.479 41.4665 130.502C41.5865 130.798 42.0408 130.946 42.5836 131.018C42.8969 131.044 43.2542 131.065 43.6507 131.082C44.1565 131.086 44.6131 131.064 44.8393 131.067C46.0808 131.082 47.3195 131.026 48.5604 131.018C50.3966 131.006 52.2333 131.017 54.0697 131.017C56.0568 131.017 58.0298 130.803 60.0141 130.767C59.9288 130.552 59.9957 130.255 59.9375 129.986C59.9244 129.925 59.9063 129.869 59.8859 129.814ZM60.1652 131.001C60.1956 131.001 60.2268 131.001 60.2564 131.001C60.2403 130.994 60.2252 130.987 60.2109 130.979C60.1959 130.987 60.1808 130.994 60.1652 131.001ZM60.6312 130.999C60.6746 130.999 60.7193 130.999 60.7612 130.999C60.7612 130.999 60.741 130.985 60.7134 130.965C60.6866 130.978 60.6593 130.989 60.6312 130.999Z" fill="#EE9999"/>
<path d="M47.4658 32.4218C47.6522 32.6332 46.9451 32.8985 46.7781 32.709C46.4002 32.2803 46.0336 32.4803 45.7422 32.8901C45.6054 33.0826 44.861 33.151 45.0546 32.8788C45.5709 32.1521 46.773 31.6358 47.4658 32.4218ZM44.203 30.809C44.3774 30.8205 44.5807 30.7659 44.7262 30.6689C45.0278 30.4679 45.3372 30.2445 45.6873 30.1372C45.7557 30.1163 46.0565 30.0351 46.0236 29.9125C45.9917 29.793 45.6881 29.8653 45.6199 29.886C45.0837 30.0499 44.6195 30.3221 44.1553 30.6311C44.036 30.711 44.0603 30.7998 44.203 30.809ZM46.4572 36.2772C46.6977 36.5055 47.0217 36.5759 47.3368 36.6395C47.5038 36.6732 47.7283 36.602 47.86 36.4993C47.9844 36.4028 47.9427 36.3073 47.801 36.2787C47.5623 36.2305 47.3299 36.1748 47.1486 36.0027C46.9799 35.8431 46.2902 36.1186 46.4572 36.2772ZM93.3106 42.1123C97.6331 43.6167 102.475 47.4244 102.605 52.3911C102.615 52.7465 103.358 52.6056 103.35 52.3178C103.215 47.1389 98.2681 43.2312 93.7498 41.6585C93.4728 41.562 92.8794 41.9621 93.3106 42.1123ZM94.7618 39.9993C98.202 41.0174 101.534 42.4973 104.151 45.0073C106.699 47.4515 107.96 50.7699 108.225 54.241C108.239 54.418 108.983 54.2757 108.965 54.0429C108.702 50.5996 107.461 47.4627 105.059 44.9565C102.479 42.2647 98.8756 40.7258 95.3626 39.686C95.1739 39.6301 94.5097 39.9245 94.7618 39.9993ZM139.314 61.0364C138.359 62.7378 137.217 64.3278 136.027 65.8711C134.812 67.4465 133.543 68.9778 132.285 70.5186C131.565 71.4003 130.591 72.3489 130.143 73.4136C130.112 73.4864 130.011 73.5439 129.893 73.5811C130.315 73.7157 130.741 73.8411 131.173 73.956C131.367 73.9187 131.558 73.9381 131.537 74.0408C131.816 74.0408 132.096 74.0408 132.375 74.0408C132.536 74.0408 132.63 74.0974 132.67 74.1743C132.82 74.1628 132.948 74.1975 132.941 74.3071C132.579 80.0998 130.568 85.8667 128.664 91.3034C127.462 94.7355 126.184 98.1499 124.77 101.501C124.686 101.7 124.078 101.785 124.033 101.653C120.88 101.654 117.729 101.669 114.576 101.691C114.582 101.725 114.585 101.76 114.592 101.792C114.597 101.813 114.593 101.833 114.586 101.853C116.322 105.715 118.091 109.57 120.035 113.332C120.776 114.765 121.526 116.203 122.388 117.568C122.565 117.848 122.996 118.673 123.451 119.203C123.827 119.194 124.209 119.211 124.593 119.255C124.795 119.278 124.795 119.393 124.714 119.49C124.744 119.496 124.774 119.501 124.804 119.507L125.111 119.551C125.111 119.551 125.149 119.57 125.211 119.602C127.952 120.365 129.511 123.188 129.145 126.027C128.731 129.239 126.073 131.329 122.828 130.817C119.585 130.306 116.991 127.642 117.441 124.248C110.35 124.248 103.26 124.248 96.1687 124.248C95.8937 126.57 94.7653 128.748 92.6521 129.973C89.609 131.736 85.0521 130.931 82.5768 128.521C80.1524 126.16 79.4019 122.32 80.8793 119.242C82.0301 116.843 84.1222 115.489 86.5109 115.013C86.4486 114.627 86.3337 114.219 86.2859 113.925C86.049 112.466 85.7906 111.01 85.5296 109.556C85.0718 107.005 84.5999 104.456 84.1211 101.909C84.0979 101.909 84.0747 101.909 84.0514 101.909C83.5893 101.909 83.6738 101.447 84.021 101.374C83.4759 98.4793 82.9218 95.5865 82.3654 92.694C82.1624 92.6269 82.1599 92.4223 82.2878 92.2895C81.6676 89.0658 81.0461 85.8424 80.4332 82.6174C80.4271 82.5837 80.4205 82.55 80.4143 82.5163C79.1627 75.9257 77.95 69.3287 76.8689 62.7107C76.2834 62.5376 75.7709 62.1903 75.4707 61.6582C75.1318 62.2725 74.7373 63.0376 74.1342 63.3577C72.9451 63.9887 71.3849 64.2037 70.0574 64.2793C67.7851 64.4087 65.4773 64.4555 63.2587 63.8873C61.5849 63.4589 59.9359 62.8884 58.3216 62.2169C58.7373 64.0308 59.976 65.5976 60.6289 67.3355C61.5091 69.6785 61.9312 72.1017 62.3846 74.5525C63.0884 78.3545 63.6328 82.3177 63.0815 86.1728C63.1494 86.2106 63.1908 86.275 63.1795 86.3712C61.6858 99.3457 58.3668 111.846 54.7341 124.356C54.6608 124.609 54.1685 124.714 54.0196 124.574C52.484 124.287 50.9737 123.882 49.5292 123.309C49.4753 124.166 49.712 124.93 50.1532 125.58C50.1933 125.597 50.2153 125.624 50.211 125.663C50.6739 126.308 51.3398 126.835 52.126 127.212C54.1077 128.164 56.0744 128.13 58.2011 128.382C58.9544 128.471 60.1261 128.657 60.5378 129.411C60.6478 129.613 60.6419 130.58 60.8166 130.622C61.0888 130.687 60.9289 130.862 60.7142 130.965C60.6874 130.978 60.6598 130.989 60.632 131C60.5347 131.035 60.4359 131.053 60.3669 131.037C60.3258 131.027 60.2901 131.015 60.2569 131.001C60.2408 130.995 60.2257 130.987 60.2114 130.98C60.1964 130.987 60.1813 130.995 60.1657 131.002C60.0689 131.045 59.9643 131.078 59.8986 131.079C57.7936 131.104 55.7016 131.334 53.5945 131.334C51.6158 131.334 49.6331 131.296 47.6552 131.348C46.2018 131.385 44.7403 131.433 43.2879 131.351C42.7179 131.319 41.0102 131.398 40.7273 130.7C40.7033 130.641 40.7962 130.57 40.9239 130.516C40.8266 130.484 40.7753 130.415 40.8379 130.298C42.446 127.279 43.7577 123.811 44.559 120.485C44.5628 120.47 44.5692 120.455 44.5768 120.441C43.581 119.708 42.6025 118.951 41.5768 118.258C41.4989 118.205 41.4675 118.125 41.5183 118.039C45.1457 111.857 47.7387 104.969 50.1686 98.2492C51.637 94.1888 53.1096 90.0453 54.29 85.8391C54.1869 85.6195 54.0712 85.4078 53.9287 85.2143C53.5143 84.651 53.0059 84.3379 52.4375 84.1804C49.844 90.0229 44.9175 95.0623 40.1571 99.1838C35.1506 103.518 29.1675 107.838 22.4936 108.983C21.9821 109.071 22.2538 108.647 22.5985 108.588C29.2012 107.455 35.2316 102.957 40.1071 98.597C44.6335 94.5491 49.3474 89.7251 51.7961 84.0665C49.7669 83.8806 47.1966 85.0723 45.3035 84.2371C44.7129 83.9764 44.1685 83.6554 43.6512 83.2982C41.3396 86.8824 37.5299 89.6393 33.878 91.6908C30.2455 93.7312 25.788 95.4037 21.5705 94.569C21.1553 96.7417 21.0067 98.989 21.0649 101.197C21.1525 101.236 21.1367 101.303 21.069 101.371C21.139 103.661 21.3468 106.106 22.4052 108.176C22.5344 108.428 21.8108 108.658 21.6655 108.374C20.6109 106.312 20.3781 103.851 20.3267 101.561C17.6538 101.266 16.1437 104.068 15.6767 106.356C15.3141 108.132 15.6961 110.301 14.71 111.905C14.3267 112.529 13.7055 113.049 12.9315 113.024C12.7086 113.017 12.0723 112.924 12.0182 112.61C12.0085 112.599 12.0016 112.586 12.0016 112.571C11.9906 108.702 11.6691 104.838 11.5432 100.972C11.5218 100.318 10.8742 95.6736 12.4229 95.9637C13.2476 95.4583 14.2782 95.5311 15.2212 95.5549C17.0364 95.6006 18.8391 95.5597 20.6518 95.6777C20.7218 95.2058 20.8009 94.7355 20.8972 94.2684C20.9449 94.0374 21.2973 93.9595 21.4898 94.0072C25.871 95.0991 30.6152 93.126 34.318 90.8905C37.6346 88.8884 41.073 86.323 43.1354 82.9716C43.1418 82.9611 43.151 82.9514 43.1594 82.942C41.5362 81.7099 40.163 80.1447 38.5104 78.9257C38.3439 78.8029 38.4767 78.6563 38.6636 78.5751C38.8156 78.509 39.003 78.4857 39.0957 78.5542C41.2816 80.1669 43.0154 82.5975 45.5423 83.7123C47.319 84.4962 48.9807 83.8954 50.7913 83.6922C51.6656 83.5939 52.7148 83.5053 53.5187 83.9544C53.9732 84.2085 54.2931 84.5435 54.5418 84.9214C55.1957 82.4956 55.7473 80.0495 56.1344 77.5859C56.1798 77.2969 56.9308 77.1784 56.8787 77.5101C56.4405 80.2974 55.7603 83.052 54.9772 85.7737C55.1868 86.2949 55.3459 86.8464 55.553 87.3696C55.7902 87.9697 56.0928 88.5309 56.6193 88.9586C56.831 89.1305 57.0536 89.2778 57.2834 89.3909C57.9205 89.7047 58.6127 89.7486 59.2787 89.2663C59.6859 88.9714 60.0544 88.6328 60.4494 88.3231C60.9856 87.9028 61.5282 87.568 62.151 87.3249C62.3711 86.2231 62.4955 85.1098 62.5422 83.9914C62.6042 82.5092 62.5332 81.0185 62.3783 79.5337C62.1819 77.6526 61.854 75.7814 61.4915 73.9519C61.0239 71.5928 60.5492 69.3555 59.7117 67.0931C59.0657 65.3479 57.7808 63.8638 57.4987 61.9863C57.4925 61.9455 57.4994 61.9072 57.5163 61.8714C54.934 60.7346 52.4485 59.3468 50.1096 57.8577C46.8333 55.772 42.8834 53.1885 41.1565 49.5593C41.1328 49.5093 41.1458 49.4602 41.181 49.4156C41.1706 49.4084 41.1624 49.3995 41.1565 49.389C40.9786 49.0719 40.796 48.754 40.6548 48.4182C40.3078 47.594 40.0741 46.6208 40.2695 45.8117C40.3185 45.6089 40.3966 45.4174 40.5046 45.2402C40.714 44.8981 41.0391 44.611 41.5255 44.4193C43.1783 43.7677 45.0566 44.2891 46.533 45.1547C49.4567 46.8685 51.2663 49.844 53.7628 52.0675C54.5145 52.737 55.3017 53.3391 56.118 53.8894C55.9796 51.1961 55.0538 49.257 52.772 47.5659C51.5196 46.6374 50.0999 45.5387 48.5837 44.6376C48.3485 44.6728 48.2241 44.5656 48.2571 44.4476C46.1411 43.2429 43.8491 42.469 41.5643 43.1048C41.5214 43.1168 41.4785 43.1311 41.4356 43.1439C41.4259 43.152 41.4157 43.1597 41.4045 43.1676C41.3871 43.1799 41.3697 43.1921 41.3488 43.2039C40.7477 43.5384 40.3022 43.9252 39.9809 44.3493C39.7509 44.6532 39.5839 44.9762 39.4738 45.3143C38.9657 46.8739 39.6319 48.7443 40.51 50.4372C42.1485 53.5965 44.2051 56.5327 45.5946 59.8218C46.341 61.589 46.9528 63.4517 47.128 65.3724C47.2094 66.2679 47.2413 67.1728 47.1438 68.0691C47.0738 68.711 47.0731 69.645 46.6974 70.2019C46.0673 71.136 44.956 71.7302 44.0932 72.4226C41.9782 74.1197 40.2506 76.1384 38.8161 78.4385C38.7824 78.4926 38.7239 78.5353 38.6549 78.5667C38.383 78.6908 37.9385 78.6351 38.1103 78.3594C39.4457 76.2178 41.0258 74.2466 42.9649 72.6198C43.6387 72.0544 44.345 71.5351 45.0408 70.9984C45.3927 70.7269 45.9421 70.3919 46.0826 69.9397C46.5075 68.5718 46.5945 67.1452 46.4531 65.7186C44.7487 67.6718 42.649 68.997 40.3458 69.7993C39.9265 69.9537 39.482 70.0896 39.0186 70.1976C36.1378 70.9371 33.0142 70.9406 29.9955 70.398C26.3158 69.7364 22.1573 68.5312 19.0733 66.3095C16.7772 64.6554 14.9855 62.1433 14.8663 59.2304C14.8591 59.0534 14.8573 58.8742 14.8591 58.6934C14.6183 57.1116 15.0708 55.6661 15.7972 54.4621C16.2413 53.5455 16.8521 52.7268 17.6554 52.1104C17.9919 51.8523 18.3407 51.6434 18.6966 51.457C19.0447 51.2316 19.3534 51.0745 19.586 50.9969C20.3467 50.7433 21.1806 50.3218 21.8279 49.9617C22.7086 49.2754 22.8963 48.2859 23.0181 47.057C23.2208 45.014 23.1488 42.5162 24.5041 40.8243C25.6877 39.3469 27.5746 38.4021 29.4636 38.3312C30.4406 38.2944 31.7158 38.489 32.6128 38.0332C33.521 37.5718 33.8568 36.6615 33.9812 35.7177C33.8435 32.1733 33.5966 28.26 36.9299 26.0735C38.4714 25.0623 40.6658 24.7894 41.7959 23.2343C42.6419 22.0702 43.5332 20.71 45.1123 20.5328C47.9902 20.21 50.5741 23.493 49.1411 26.1912C48.9322 26.5844 48.6603 26.9294 48.3472 27.2363C48.4113 27.2754 48.4545 27.3379 48.4557 27.4291C48.4711 28.7155 48.601 30.0045 48.9258 31.2526C49.2703 32.576 49.9252 32.8541 51.2425 32.8066C51.5638 32.7948 51.6179 33.0101 51.5071 33.1717C51.5686 33.1985 51.5952 33.2486 51.5512 33.3293C51.1184 34.1275 50.5299 34.3992 50.5508 35.4409C50.5641 36.0931 50.62 36.7434 50.6192 37.3958C50.6185 38.2658 50.1515 39.0104 49.402 39.4496C48.7379 39.8384 48.0377 39.9717 47.284 40.0744C45.9902 40.2506 45.5065 41.0179 45.2338 42.1217C50.0976 40.3139 55.0173 38.6463 60.0123 37.2375C68.5575 34.8274 77.8076 32.5972 86.7665 33.1939C88.478 33.3081 90.4743 33.45 92.0112 34.3026C92.3202 34.4742 92.7285 34.7326 92.8153 35.1062C92.9864 35.8395 91.9397 36.0012 91.0021 36.0001C91.2291 36.1219 91.45 36.2534 91.6573 36.4049C92.371 36.9263 93.4585 38.0725 93.0479 39.0576C92.5965 40.141 90.8762 39.4858 89.6069 38.9202C90.1819 39.6658 90.6702 40.4809 91.019 41.2112C91.5858 42.397 91.308 43.2754 90.1347 43.2608C89.9585 43.3433 89.7129 43.3872 89.612 43.3014C88.0675 41.9879 86.3304 39.8637 84.223 39.5269C81.1939 39.0428 82.0776 42.4097 81.3885 44.1315C81.3091 44.3302 80.9771 44.4009 80.7899 44.371C78.6489 44.0271 77.9608 42.1327 76.8352 40.5644C76.8204 40.5664 76.8058 40.5682 76.7921 40.5682C67.4494 40.5958 58.3117 42.3081 49.2603 44.4824C50.2153 45.0462 51.1473 45.6842 52.065 46.3175C53.3992 47.2383 54.9126 48.2078 55.7966 49.6106C56.692 51.0316 56.8626 52.6495 56.8774 54.2972C56.8777 54.3202 56.8672 54.3419 56.8504 54.362C58.3599 55.2946 59.9727 56.0453 61.6973 56.6183C63.3841 57.1787 65.1334 57.646 66.9075 57.8186C67.803 57.9057 68.724 57.9624 69.6203 57.8472C70.3493 57.7535 70.912 57.3271 71.5149 56.941C73.5204 55.6566 75.5542 54.147 77.9975 53.9078C79.3909 53.7714 80.6735 54.4085 81.3987 55.6053C81.7258 56.1456 81.9676 56.7275 82.1415 57.3342C82.2125 57.5824 82.4451 58.0571 82.2648 58.1534C82.2658 58.1598 82.2671 58.1666 82.2679 58.173C82.4395 58.1738 82.3981 58.2341 82.2875 58.2984C82.4086 59.5174 81.6065 60.5725 80.3173 60.4108C80.5653 62.0376 79.096 62.8897 77.6651 62.8379C78.2421 66.3197 78.8969 69.7893 79.5406 73.2592C79.5893 73.5224 79.6391 73.7857 79.6879 74.0489C79.7155 74.0436 79.7443 74.04 79.7752 74.04C80.4322 74.04 81.0892 74.04 81.7467 74.04C82.1292 72.9216 82.706 71.8732 83.4772 70.9756C85.7507 68.33 89.0995 67.3865 92.4831 68.0231C92.5449 68.0346 92.5819 68.053 92.6026 68.0749C95.7905 68.5014 98.609 70.9853 100.088 74.04C102.899 74.04 105.71 74.04 108.52 74.04C108.603 74.0203 108.69 74.0201 108.766 74.04C109.679 74.04 110.592 74.04 111.505 74.04C111.776 72.8759 112.048 71.712 112.327 70.5502C112.691 69.0399 112.91 67.2813 113.566 65.8598C113.6 65.7861 113.705 65.7286 113.825 65.6918C113.976 65.6328 114.153 65.6025 114.234 65.6446C115.929 66.5368 117.591 67.5035 119.256 68.4633C120.625 65.3701 122.891 62.3709 125.131 59.9099C126.395 58.5211 129.142 55.5688 131.177 57.5232C132.48 58.7754 131.726 60.9236 130.801 62.6752C132.344 60.7147 133.979 58.8144 135.827 57.1859C136.567 56.5342 137.503 55.7013 138.545 55.64C139.43 55.5879 140.359 56.2807 140.478 57.1729C140.655 58.5162 139.95 59.9032 139.314 61.0364ZM13.2387 96.0193C13.0865 96.0663 12.9504 96.1266 12.8416 96.2078C12.7528 96.2739 12.5455 96.3053 12.382 96.2951C12.3685 96.3306 12.3483 96.3972 12.3297 96.5172C12.3036 96.687 12.2835 96.8571 12.2722 97.0284C12.2352 97.5899 12.2301 98.1532 12.2352 98.7155C12.2493 100.193 12.3103 101.669 12.3779 103.145C12.5176 106.194 12.7278 109.247 12.7395 112.301C12.763 112.327 12.7735 112.361 12.7622 112.406C12.7298 112.534 13.1562 112.596 13.2213 112.587C13.7724 112.507 14.1199 111.782 14.2682 111.316C14.8451 109.507 14.545 107.574 15.1106 105.755C15.4364 104.708 15.9282 103.708 16.587 102.905C16.5753 102.902 16.5638 102.898 16.5538 102.893C15.3031 102.222 13.9503 101.072 14.1812 99.4741C14.3951 97.9911 15.3575 96.8877 16.4841 95.9723C16.4509 95.9726 16.4175 95.9718 16.3843 95.9723C16.1345 95.9752 15.8051 95.9517 15.4454 95.9284C14.7044 95.8809 13.8337 95.8357 13.2387 96.0193ZM12.117 96.3423C12.2459 96.3482 12.3208 96.3191 12.3596 96.2936C12.3195 96.29 12.2832 96.2836 12.2523 96.2744C12.2061 96.2915 12.1599 96.3053 12.1167 96.3145C12.0593 96.327 12.0077 96.3314 11.9714 96.3242C12.0271 96.3354 12.0743 96.3403 12.117 96.3423ZM20.3193 101.107C20.2984 99.4432 20.3686 97.7697 20.5867 96.1176C19.4193 96.0293 18.2493 95.9792 17.0785 95.9736C16.756 96.2394 16.4228 96.5418 16.1154 96.8747C15.6131 97.4191 15.1836 98.0455 15.0003 98.7316C14.9296 98.9964 14.8946 99.2696 14.9071 99.5505C14.9099 99.6128 14.9168 99.6728 14.9229 99.7333C15.0008 100.51 15.346 101.127 15.846 101.634C16.167 101.959 16.5507 102.238 16.9682 102.483C17.8384 101.607 18.9543 101.06 20.3193 101.107ZM53.8703 128.375C52.3385 128.015 50.7737 127.352 49.7881 126.281C48.9636 127.357 47.9537 128.19 46.5379 128.379C45.252 128.55 44.0593 127.856 43.0877 127.062C42.6087 128.192 42.0895 129.295 41.5332 130.339C41.5099 130.383 41.4663 130.42 41.4119 130.45C41.4379 130.462 41.4571 130.479 41.4665 130.502C41.5865 130.798 42.0408 130.946 42.5836 131.018C42.9245 131.064 43.2988 131.08 43.6507 131.082C44.1565 131.086 44.6131 131.064 44.8393 131.067C46.0808 131.082 47.3195 131.026 48.5604 131.018C50.3966 131.006 52.2333 131.017 54.0697 131.017C56.0568 131.017 58.0298 130.803 60.014 130.767C59.9288 130.552 59.9957 130.255 59.9374 129.986C59.9244 129.925 59.9063 129.869 59.8861 129.815C59.5866 129.009 58.5218 128.791 57.4811 128.726C56.7681 128.681 56.0672 128.708 55.6329 128.666C55.5009 128.653 55.3655 128.637 55.2289 128.62C54.7903 128.564 54.3322 128.483 53.8703 128.375ZM48.8293 123.013C48.1034 122.692 47.3943 122.33 46.7128 121.908C46.188 121.583 45.6804 121.235 45.1797 120.877C44.7111 122.72 44.0904 124.601 43.3527 126.422C43.3614 126.427 43.3706 126.431 43.3777 126.438C44.1065 127.088 44.9869 127.806 45.9902 127.952C47.5835 128.183 48.6138 127.026 49.4276 125.833C48.9016 125.075 48.6472 124.145 48.8293 123.013ZM62.257 87.8223C62.211 87.8149 62.1717 87.8004 62.1421 87.7776C60.634 88.5294 59.3208 90.5752 57.4596 90.054C56.4965 89.7844 55.674 89.2155 55.2192 88.3039C54.9902 87.8445 54.8349 87.3308 54.6677 86.8232C54.3054 88.0414 53.9277 89.2535 53.5429 90.458C51.9542 95.4341 50.1831 100.356 48.2277 105.2C46.567 109.314 44.8352 113.455 42.6526 117.325C42.3112 117.931 42.278 117.935 42.8632 118.355C43.3208 118.684 43.7728 119.02 44.2224 119.36C45.0607 119.992 45.898 120.632 46.7838 121.197C49.0397 122.637 51.4818 123.526 54.0893 124.05C57.5505 112.11 60.7081 100.174 62.257 87.8223ZM45.0926 42.6684C45.0668 42.6993 45.0306 42.7274 44.9856 42.7516C46.294 42.9878 47.5449 43.5215 48.7565 44.1948C57.9016 41.9841 67.1335 40.2327 76.5681 40.1449C76.6179 39.9628 77.1539 39.8014 77.2777 39.9579C78.3823 41.3539 78.9916 43.3057 80.7682 43.8767C81.0872 42.7322 80.8671 41.4762 81.3629 40.4081C81.7434 39.5887 82.8335 39.2305 83.6498 39.1C86.0714 38.7126 88.3225 41.2559 90.0098 42.7677C90.0387 42.7649 90.0665 42.7644 90.0908 42.7688C91.4579 43.0126 89.5939 40.2529 89.2936 39.8479C88.6634 38.9968 87.9416 37.9686 87.0264 37.3984C86.6988 37.1941 87.3706 36.8619 87.6068 37.0095C88.0419 37.2807 88.4632 37.6412 88.8595 38.0528C88.905 38.0477 88.9453 38.0477 88.9754 38.0569C89.7172 38.276 90.402 38.6445 91.1254 38.9131C91.2973 38.9769 92.2844 39.4225 92.3633 39.0321C92.4415 38.6452 92.2349 38.1174 92.0334 37.7926C91.105 36.2961 89.2247 35.7977 87.639 35.325C87.3584 35.2413 88.0261 34.9259 88.2334 34.988C88.737 35.1381 89.2576 35.2893 89.7675 35.4688C89.8436 35.4351 89.9271 35.4172 90.005 35.4282C90.4043 35.4849 92.0927 35.538 92.0865 35.362C92.0559 34.4773 89.8222 34.1224 89.2459 34.0118C86.4218 33.4705 83.4641 33.5392 80.611 33.749C68.4327 34.644 56.464 38.4185 45.0926 42.6684ZM41.0835 42.7409C41.0797 42.746 41.0766 42.7511 41.073 42.756C41.0792 42.7534 41.0855 42.7499 41.0917 42.7476C41.0876 42.7455 41.0858 42.7432 41.0835 42.7409ZM44.3991 42.6671C44.8128 40.5368 45.8007 39.9664 47.801 39.6462C49.7715 39.3306 49.8706 37.9566 49.8241 36.2757C49.808 35.6963 49.7633 35.1516 49.9451 34.5958C50.1042 34.1093 50.6029 33.7955 50.8526 33.3535C49.9375 33.3678 49.0292 33.2654 48.503 32.4093C47.7548 31.1923 47.7237 29.2257 47.7081 27.7649C46.3216 28.7397 44.4155 29.1432 42.768 29.1503C42.7642 30.9937 42.6592 32.7553 41.084 33.89C41.5283 33.9822 41.9412 34.2863 42.1937 34.8286C42.2456 34.9402 41.5332 35.1971 41.454 35.0268C40.9088 33.8565 39.7008 34.1788 39.8801 35.4803C39.9679 36.1161 40.5636 37.5713 41.5544 36.8119C41.621 36.7608 42.2412 36.5088 42.2578 36.6796C42.3743 37.8825 42.2627 39.1176 42.1396 40.3159C42.0704 40.9885 42.1164 41.9606 41.8051 42.5836C41.7594 42.6748 41.5656 42.732 41.3886 42.7545C41.455 42.7843 41.5046 42.8323 41.527 42.8898C42.5175 42.6232 43.473 42.5663 44.3991 42.6671ZM75.2118 60.8613C75.2089 60.8385 75.2033 60.8176 75.201 60.7944C75.1885 60.6654 75.285 60.56 75.4124 60.4956C76.1277 59.1842 77.1324 57.357 78.6798 57.432C79.2531 57.4599 79.9057 57.9808 79.9192 58.5908C79.9282 58.9942 79.922 59.857 80.493 59.9474C81.9004 60.1701 81.6571 58.6033 81.4143 57.9006C81.4043 57.8717 81.4056 57.8436 81.413 57.8166C81.3144 57.4683 81.257 57.0735 81.1924 56.906C80.7095 55.6554 79.8253 54.3894 78.3839 54.2117C75.5222 53.859 73.0212 56.583 70.6442 57.7931C69.011 58.6245 66.4872 58.1991 64.7818 57.8676C62.1788 57.3621 59.5565 56.5258 57.216 55.2637C54.3942 53.7418 52.1125 51.5469 49.996 49.1679C49.195 48.2675 48.3482 47.3184 47.404 46.5049C46.6586 45.863 45.8528 45.3053 44.9581 44.9267C44.4857 44.7265 43.989 44.5756 43.4638 44.4882C40.0404 43.9178 40.8391 47.3087 41.8955 49.1906C41.9075 49.2118 41.8751 49.2445 41.8186 49.2795C41.8518 49.2991 41.8786 49.3257 41.8955 49.3609C43.3959 52.5141 46.6939 54.8988 49.6234 56.7965C49.891 56.9699 50.1563 57.1404 50.416 57.3059C50.6736 57.4698 50.9331 57.6325 51.1938 57.7938C54.6452 59.9328 58.3497 61.8334 62.2251 63.0391C64.0548 63.6085 65.7697 63.872 67.684 63.8827C69.4448 63.8924 71.2759 63.9016 72.9688 63.3442C74.1391 62.9589 74.4986 62.0966 75.092 61.0722C75.1311 61.0055 75.1709 60.9346 75.2118 60.8613ZM77.1026 62.1617C77.3035 62.0979 77.5395 62.0976 77.5583 62.2136C77.5637 62.245 77.5691 62.2764 77.5744 62.3078C77.77 62.3438 77.9738 62.354 78.1806 62.3356C79.4369 62.2235 79.8365 61.2361 79.4568 60.1136C79.4463 60.0822 79.4458 60.0526 79.4504 60.0238C79.0922 59.5205 79.382 58.6181 78.8958 58.1707C77.9362 57.288 76.6299 59.5276 75.965 60.7553C76.0845 61.4108 76.5255 61.91 77.1026 62.1617ZM119.806 68.7812C121.298 69.6384 122.797 70.4803 124.327 71.2532C125.39 69.4793 126.854 67.8868 127.994 66.1709C128.879 64.8382 129.75 63.4653 130.378 61.9889C130.789 61.0211 131.305 59.7671 131.009 58.6972C129.975 54.9659 125.883 59.7487 124.888 60.9723C122.977 63.322 120.975 65.9615 119.806 68.7812ZM112.217 74.0408C118.051 74.0408 123.884 74.0408 129.717 74.0408C127.813 73.466 125.996 72.6999 124.225 71.828C124.1 71.8285 124.013 71.8001 124.044 71.7368C120.662 70.0559 117.443 68.0108 114.107 66.2237C113.408 67.9874 113.144 70.0873 112.717 71.8926C112.548 72.608 112.384 73.325 112.217 74.0408ZM117.939 96.9289C118.148 98.9803 120.019 100.17 122.031 99.8533C125.523 99.3025 124.554 93.233 121.287 93.7177C121.018 93.7575 120.963 93.6566 121.022 93.5443C119.672 93.4485 118.554 94.2899 118.118 95.4806C118.187 95.5005 118.255 95.5242 118.323 95.5429C118.452 95.5778 118.244 95.6973 118.03 95.7704C117.934 96.1358 117.898 96.5262 117.939 96.9289ZM122.19 92.9606C120.366 92.9542 118.543 92.9447 116.719 92.9335C116.559 93.5481 116.399 94.163 116.239 94.7776C116.661 94.9709 117.089 95.1425 117.522 95.2921C118.248 93.675 119.93 92.8641 121.763 93.1723C121.876 93.1912 121.911 93.232 121.9 93.2808C121.952 93.2821 122.004 93.2828 122.054 93.2869C122.098 93.1776 122.145 93.0694 122.19 92.9606ZM114.515 98.7346C114.829 97.4847 115.153 96.2374 115.478 94.9905C114.262 94.4247 113.092 93.7008 111.974 92.9001C110.844 92.8914 109.714 92.8827 108.584 92.8735C108.517 95.6468 108.466 98.4206 108.462 101.195C110.257 101.179 112.053 101.163 113.849 101.15C113.967 100.324 114.355 99.3707 114.515 98.7346ZM89.2752 101.35C90.3969 101.345 91.5184 101.338 92.6401 101.331C92.6307 101.035 92.5017 100.681 92.4427 100.433C92.2581 99.6521 92.0518 98.8766 91.8422 98.1021C91.358 96.3122 90.8596 94.5261 90.3655 92.7389C89.218 92.7333 88.0703 92.7285 86.9228 92.7249C87.187 93.6296 87.4406 94.5376 87.689 95.4468C88.0843 96.8936 88.4676 98.3432 88.8516 99.7928C88.9793 100.275 89.1057 100.757 89.2384 101.237C89.2484 101.276 89.2614 101.313 89.2752 101.35ZM86.7624 92.1787C87.913 92.182 89.0638 92.1864 90.2144 92.192C90.1245 91.8664 90.0336 91.5411 89.9445 91.2156C89.6156 90.0134 89.2862 88.8087 88.9614 87.6025C88.4474 87.7588 87.9347 87.9178 87.4242 88.0846C86.8837 88.261 86.3401 88.4359 85.8118 88.6468C85.7191 88.6841 85.6256 88.7219 85.5334 88.7625C85.9874 89.3835 86.1818 90.3027 86.4049 91.0113C86.5272 91.3992 86.646 91.7886 86.7624 92.1787ZM89.577 86.9514C90.0673 86.8066 90.5586 86.6651 91.0506 86.5267C90.5742 86.504 90.103 86.4608 89.6437 86.397C89.5689 86.3865 89.4951 86.3715 89.4205 86.3597C89.4726 86.5571 89.5239 86.7545 89.577 86.9514ZM83.4026 82.2204C84.7973 82.2273 86.192 82.2393 87.5864 82.2554C86.9777 79.7423 86.4307 77.2157 86.0107 74.6684C86.0058 74.64 86.0132 74.6127 86.0283 74.5869C84.7825 74.5869 83.5369 74.5869 82.2914 74.5869C82.2329 74.8032 82.1793 75.0225 82.1353 75.247C81.6632 77.6549 82.0774 80.2223 83.4026 82.2204ZM110.121 83.2673C109.871 84.3918 109.621 85.5166 109.379 86.6429C109.179 87.5703 109.046 88.5582 108.737 89.4627C109.836 90.4281 111.013 91.4326 112.258 92.3557C113.557 92.3656 114.857 92.3756 116.156 92.3838C116.216 92.1552 116.276 91.927 116.335 91.6982C117.044 88.955 117.761 86.2055 118.42 83.4432C115.654 83.3932 112.887 83.3319 110.121 83.2673ZM118.549 82.8986C119.195 80.1559 119.781 77.4 120.237 74.6234C120.24 74.6109 120.244 74.5987 120.251 74.5864C117.531 74.5864 114.811 74.5864 112.091 74.5864C111.496 77.147 110.91 79.7096 110.338 82.2753C110.305 82.4241 110.273 82.5733 110.24 82.7224C113.01 82.7875 115.779 82.8485 118.549 82.8986ZM108.597 92.3271C109.473 92.3342 110.348 92.3414 111.224 92.3483C110.329 91.6696 109.47 90.9538 108.65 90.2442C108.631 90.9385 108.614 91.6328 108.597 92.3271ZM109.408 83.2507C109.218 83.2461 109.028 83.2417 108.837 83.2374C108.813 84.2317 108.787 85.226 108.76 86.2201C108.974 85.2298 109.189 84.2396 109.408 83.2507ZM108.087 83.2193C105.328 83.1534 102.57 83.0857 99.8114 83.0227C99.7391 83.1251 99.6704 83.229 99.5921 83.3288C99.3743 83.6059 99.1355 83.8561 98.8868 84.0933C98.907 84.2337 98.9266 84.3744 98.9471 84.5146C100.25 84.2606 101.558 84.0716 102.864 83.9833C102.987 83.8699 103.501 83.6934 103.579 83.8377C105.009 86.4971 105.651 89.4272 106.43 92.3092C106.902 92.3133 107.374 92.3171 107.847 92.321C107.864 91.6331 107.881 90.9449 107.899 90.257C107.774 90.255 107.68 90.2144 107.692 90.1181C107.7 90.0502 107.711 89.98 107.723 89.909C107.716 89.7652 107.712 89.5987 107.718 89.4297C107.716 89.4277 107.713 89.4254 107.711 89.4236C107.693 89.4078 107.699 89.386 107.72 89.3615C107.734 89.107 107.774 88.8562 107.871 88.6856C107.881 88.6665 107.909 88.645 107.944 88.6236C107.994 86.8219 108.042 85.0207 108.087 83.2193ZM93.3804 101.302C96.005 100.923 98.5973 100.204 101.177 99.4685C101.075 99.1753 100.989 98.8955 100.913 98.6596C100.3 96.7476 99.8796 94.7738 99.5144 92.7982C96.7302 92.776 93.9459 92.7576 91.1617 92.7428C91.678 94.604 92.1991 96.4641 92.6965 98.3304C92.9072 99.1217 93.5006 100.423 93.3804 101.302ZM91.0103 92.1961C93.8119 92.2106 96.6132 92.2288 99.4149 92.251C99.3845 92.0817 99.3536 91.9127 99.3237 91.7436C98.9333 89.5403 98.5942 87.3293 98.2712 85.1154C97.8652 85.2018 97.46 85.2927 97.056 85.3887C95.7604 86.0546 94.2863 86.3996 92.7989 86.5055C92.6662 86.542 92.5334 86.5783 92.4011 86.6146C91.4962 86.8622 90.5928 87.1168 89.6927 87.3826C90.0484 88.7025 90.4105 90.0196 90.7715 91.3346C90.8504 91.6218 90.9306 91.9088 91.0103 92.1961ZM98.7931 83.4414C98.9075 83.2997 99.0137 83.1547 99.1151 83.0071C98.9866 83.0043 98.8582 83.0017 98.7295 82.9987C98.7505 83.1463 98.7719 83.2938 98.7931 83.4414ZM99.0127 84.9643C99.3012 86.9429 99.6038 88.9193 99.948 90.8892C100.028 91.3445 100.108 91.8011 100.191 92.2574C102.005 92.2722 103.82 92.287 105.635 92.3026C104.918 89.6294 104.294 86.924 103.039 84.435C101.696 84.5118 100.351 84.7036 99.0127 84.9643ZM101.895 99.2637C103.785 98.7242 105.668 98.193 107.554 97.7968C106.779 96.2116 106.248 94.5424 105.783 92.8503C103.952 92.8347 102.121 92.8196 100.29 92.8048C100.616 94.5634 100.987 96.3188 101.515 98.0227C101.618 98.3554 101.738 98.8026 101.895 99.2637ZM107.833 92.8671C107.416 92.8635 106.998 92.8602 106.581 92.8567C106.916 94.0601 107.288 95.2507 107.76 96.4069C107.781 95.227 107.805 94.0471 107.833 92.8671ZM99.4511 82.4673C100.768 80.112 100.611 77.1707 99.4978 74.5867C98.8296 74.5867 98.1616 74.5867 97.4931 74.5867C97.9129 77.2027 98.2791 79.8265 98.6511 82.4497C98.918 82.4558 99.1845 82.4612 99.4511 82.4673ZM96.735 74.6681C96.7304 74.6398 96.7378 74.6125 96.7527 74.5867C93.4258 74.5867 90.0984 74.5867 86.7713 74.5867C87.2003 77.1644 87.7554 79.7219 88.3746 82.2656C91.545 82.3054 94.715 82.3644 97.8848 82.4331C97.5161 79.8426 97.1512 77.2517 96.735 74.6681ZM83.7999 82.7678C84.3594 83.4721 85.0452 84.088 85.8621 84.5754C86.622 85.0286 87.5042 85.4012 88.4497 85.6744C88.1995 84.7192 87.9541 83.7626 87.7181 82.8038C86.4118 82.7883 85.106 82.7752 83.7999 82.7678ZM89.2954 85.8881C90.2545 86.0967 91.2585 86.2032 92.2533 86.1912C93.8573 85.7467 95.4928 85.2904 97.1433 84.904C97.4957 84.6847 97.8269 84.4357 98.132 84.1543C98.0756 83.7637 98.0189 83.3727 97.9632 82.9821C94.811 82.9134 91.6591 82.8544 88.5066 82.8138C88.7605 83.8408 89.0252 84.8652 89.2954 85.8881ZM95.8725 101.308C97.9586 101.292 100.045 101.273 102.13 101.254C101.79 100.893 101.535 100.394 101.335 99.8929C99.5221 100.406 97.7041 100.912 95.8725 101.308ZM107.71 101.202C107.712 100.212 107.719 99.2228 107.731 98.2334C105.835 98.6289 103.945 99.1544 102.051 99.6904C102.304 100.332 102.645 100.937 103.125 101.244C104.653 101.23 106.182 101.216 107.71 101.202ZM115.611 94.4753C115.746 93.96 115.88 93.4445 116.014 92.9292C115.017 92.9228 114.02 92.9149 113.023 92.9075C113.859 93.4889 114.723 94.0233 115.611 94.4753ZM122.416 92.4149C123.439 90.0752 124.777 87.8336 125.901 85.5559C126.229 84.8907 126.555 84.223 126.878 83.5535C124.294 83.5344 121.71 83.5002 119.125 83.455C118.5 86.0702 117.824 88.6742 117.152 91.2718C117.056 91.6438 116.958 92.0156 116.861 92.3876C118.713 92.3993 120.564 92.4085 122.416 92.4149ZM127.14 83.0096C128.454 80.2627 129.684 77.4703 130.655 74.5867C127.424 74.5867 124.192 74.5867 120.961 74.5867C120.499 77.3794 119.909 80.1516 119.257 82.9103C121.884 82.956 124.512 82.991 127.14 83.0096ZM111.375 74.5867C110.573 74.5867 109.771 74.5867 108.969 74.5867C108.964 77.2884 108.915 79.9895 108.85 82.6902C109.077 82.6956 109.303 82.7007 109.53 82.7063C109.756 81.6941 109.982 80.6819 110.211 79.6705C110.594 77.9748 110.982 76.2801 111.375 74.5867ZM100.334 74.5867C101.428 77.1738 101.554 80.088 100.158 82.4834C102.806 82.5439 105.452 82.6088 108.1 82.6721C108.164 79.9775 108.212 77.2823 108.218 74.5867C105.59 74.5867 102.962 74.5867 100.334 74.5867ZM82.4553 74.0408C88.0519 74.0408 93.6487 74.0408 99.2453 74.0408C97.7692 71.0487 95.0115 68.6558 91.8297 68.4434C91.7038 68.435 91.6417 68.4028 91.6236 68.3599C87.4396 67.7601 83.7654 70.1353 82.4553 74.0408ZM81.2123 82.2132C81.6476 82.2137 82.083 82.216 82.5184 82.2176C82.1241 81.6009 81.8042 80.9207 81.5848 80.1692C81.0604 78.3724 81.0678 76.4057 81.5767 74.5869C80.9799 74.5869 80.3834 74.5869 79.787 74.5869C80.2596 77.1294 80.7351 79.6716 81.2123 82.2132ZM83.0834 92.1711C84.0445 92.1716 85.0051 92.1746 85.9662 92.1769C85.8319 91.7319 85.6941 91.2878 85.5485 90.8463C85.3813 90.3374 85.2189 89.8173 84.9919 89.3309C84.9375 89.2145 84.6706 88.9313 84.6941 88.8018C84.784 88.3054 86.219 88.0172 86.5773 87.8959C87.3285 87.6413 88.0853 87.4018 88.8447 87.171C88.7582 86.8474 88.6739 86.5237 88.5881 86.1999C86.3334 85.6872 84.2669 84.5481 82.9014 82.7648C82.3726 82.7625 81.8432 82.7604 81.3144 82.7594C81.904 85.8968 82.4941 89.0339 83.0834 92.1711ZM84.6188 100.372C84.6801 100.702 84.7409 101.031 84.8021 101.361C86.0038 101.36 87.2054 101.357 88.4071 101.353C88.3052 100.941 88.2447 100.493 88.2028 100.335C87.7878 98.7711 87.377 97.2059 86.9491 95.6452C86.6817 94.6701 86.4123 93.6944 86.1274 92.7234C85.1471 92.7208 84.1666 92.718 83.1861 92.7175C83.6654 95.2686 84.1436 97.82 84.6188 100.372ZM88.7668 119.978C88.6463 119.957 88.5988 119.906 88.5973 119.847C88.1839 119.821 87.8096 119.857 87.4748 119.944C86.9892 120.211 86.4231 120.553 86.0033 120.898C85.5375 121.494 85.3271 122.265 85.3772 123.024C85.4441 123.471 85.5753 123.938 85.765 124.358C86.1963 125.133 86.9828 125.725 88.1313 125.836C88.869 125.832 89.4951 125.637 89.9838 125.385C91.7566 124.068 91.3672 120.423 88.7668 119.978ZM91.7444 129.908C91.4814 130.012 91.212 130.112 90.9482 130.206C91.2235 130.123 91.4883 130.022 91.7444 129.908ZM121.822 123.595C120.838 124.762 121.354 127.041 123.404 127.152C123.527 127.159 123.642 127.153 123.753 127.14C123.983 127.097 124.191 127.03 124.377 126.949C125.814 126.156 125.567 123.343 123.687 123.021C123.591 123.005 123.541 122.969 123.524 122.925C123.242 122.911 122.988 122.939 122.761 123.002C122.456 123.17 122.105 123.379 121.822 123.595ZM113.686 101.697C106.641 101.748 99.5964 101.831 92.5513 101.877C91.4732 102.006 90.3885 102.076 89.2962 102.065C89.1598 102.154 88.9466 102.179 88.8286 102.148C88.7768 102.135 88.729 102.097 88.6854 102.044C88.5741 102.022 88.5393 101.965 88.5526 101.898C87.3359 101.903 86.1195 101.905 84.9027 101.906C85.4729 104.972 86.0408 108.038 86.5791 111.109C86.7675 112.183 86.9567 113.257 87.1206 114.336C87.1457 114.5 87.1924 114.696 87.2299 114.897C88.1149 114.787 89.0303 114.79 89.9458 114.899C90.0481 114.911 90.0977 114.948 90.1117 114.993L90.7815 115.089C90.7815 115.089 91.4865 115.441 92.2689 115.962C94.4104 117.111 95.8362 119.309 96.1569 121.85C96.2453 122.55 96.256 123.262 96.194 123.963C103.291 123.963 110.387 123.963 117.484 123.963C117.485 123.958 117.486 123.954 117.487 123.949C117.998 121.165 120.123 119.584 122.657 119.262C122.483 119.038 122.331 118.802 122.196 118.605C121.306 117.299 120.54 115.908 119.805 114.509C117.603 110.32 115.625 106.013 113.686 101.697ZM127.374 92.9711C125.875 92.9708 124.377 92.9665 122.878 92.9619C122.828 93.0842 122.775 93.2057 122.727 93.3288C122.716 93.3574 122.693 93.3832 122.663 93.4069C124.007 93.8287 124.935 95.2265 125 96.7062C125.097 98.9011 123.457 100.319 121.307 100.307C118.945 100.293 116.664 98.6951 117.262 96.0704C117.29 95.9483 117.324 95.8309 117.361 95.7155C116.94 95.5875 116.524 95.4384 116.112 95.2686C115.84 96.3155 115.568 97.3627 115.304 98.4119C115.127 99.1179 114.652 100.243 114.568 101.146C117.78 101.123 120.991 101.108 124.203 101.108C124.216 101.108 124.227 101.109 124.239 101.11C125.359 98.4282 126.396 95.7086 127.374 92.9711ZM130.492 83.5701C129.515 83.5688 128.538 83.5655 127.56 83.5594C127.203 84.2968 126.842 85.032 126.478 85.7638C125.381 87.9679 124.087 90.1449 123.103 92.4162C124.577 92.4208 126.05 92.4251 127.523 92.4254C127.539 92.4254 127.552 92.4274 127.567 92.4285C127.687 92.0896 127.81 91.7515 127.928 91.4122C128.818 88.8577 129.732 86.2341 130.492 83.5701ZM132.191 74.5867C131.911 74.5867 131.632 74.5867 131.352 74.5867C130.374 77.47 129.143 80.267 127.824 83.0153C128.765 83.0209 129.706 83.0234 130.648 83.0244C131.416 80.2435 131.998 77.4205 132.191 74.5867ZM137.945 56.1328C136.552 56.8733 135.413 58.17 134.368 59.3223C132.962 60.872 131.637 62.4947 130.354 64.1468C129.208 65.6211 128.089 67.1164 126.998 68.6318C126.632 69.1405 126.268 69.6504 125.91 70.1649C125.824 70.289 125.598 70.6608 125.537 70.6945C125.539 70.7139 125.531 70.7374 125.508 70.7655C125.503 70.7721 125.498 70.7785 125.492 70.7841C125.454 70.8242 125.335 70.8901 125.205 70.9373C125.076 71.126 124.956 71.3188 124.845 71.5147C126.338 72.2485 127.864 72.9055 129.446 73.4379C129.711 72.8595 130.156 72.342 130.544 71.8489C132.942 68.8032 135.557 65.9119 137.666 62.6484C138.526 61.3165 139.567 59.7439 139.741 58.1209C139.837 57.2193 139.143 55.496 137.945 56.1328ZM106.752 57.1655C108.206 58.0719 109.71 58.9983 110.983 60.1581C111.192 60.1461 111.39 60.2459 111.309 60.4744C110.493 62.7843 108.765 64.5946 107.903 66.8792C107.806 67.1373 107.288 67.1825 107.191 66.9668C107.187 66.9645 107.184 66.9632 107.18 66.9609C104.668 65.1893 101.736 63.8753 99.6245 61.5913C99.5009 61.5854 99.4115 61.5318 99.4429 61.3868V61.3865C99.3806 61.2767 99.4465 61.169 99.563 61.0952C99.6865 60.8748 99.8676 60.6583 99.9832 60.4749C100.347 59.8976 100.711 59.3203 101.071 58.7401C101.105 58.6855 101.14 58.6314 101.173 58.5767C101.784 57.5878 102.433 56.6006 102.845 55.5205C102.855 55.4955 102.869 55.4738 102.886 55.4539C102.986 55.3349 103.195 55.3025 103.329 55.3025C103.667 55.3022 104.077 55.6035 104.356 55.7567C105.168 56.2026 105.966 56.6752 106.752 57.1655ZM110.499 60.6493C110.475 60.6266 110.45 60.6049 110.425 60.5822C109.164 59.4051 107.636 58.47 106.176 57.5686C105.503 57.1532 104.826 56.7426 104.136 56.357C103.966 56.2623 103.667 56.0511 103.408 55.9176C103.043 56.7457 102.494 57.6332 102.004 58.4274C101.601 59.0795 101.193 59.7283 100.785 60.3769C100.657 60.5789 100.36 60.9609 100.24 61.1955C100.535 61.519 100.847 61.8224 101.173 62.1101C102.288 63.0958 103.562 63.8993 104.847 64.6825C105.711 65.2087 106.577 65.7276 107.402 66.2878C107.891 65.1804 108.562 64.172 109.196 63.1438C109.689 62.344 110.156 61.5308 110.499 60.6493ZM41.2541 35.298C41.2209 35.2617 41.1052 35.2763 41.0672 35.2798C40.9694 35.2893 40.8718 35.3125 40.7794 35.3454C40.7247 35.3649 40.4709 35.4529 40.556 35.5454C40.6885 35.6896 40.7314 35.9144 40.7904 36.0951C40.8435 36.2575 41.5773 36.04 41.5301 35.897C41.4612 35.6863 41.4083 35.4657 41.2541 35.298Z" fill="#292B2D"/>
</svg>
